<svg width="67" height="32" viewBox="0 0 67 32" fill="none" xmlns="http://www.w3.org/2000/svg">
<path d="M2.97948 9.37025C2.6136 9.26576 2.23457 9.10885 1.8426 8.89975C1.47672 8.66455 1.13694 8.40315 0.823252 8.11566C0.535771 7.80195 0.313641 7.46226 0.156853 7.09626C-4.60285e-05 6.73036 -0.0391864 6.33837 0.0392075 5.92017C0.195995 5.05757 0.692564 4.24738 1.52891 3.48939C2.36526 2.73139 3.4891 2.13019 4.90052 1.6859V1.56824C4.92661 1.28074 5.1096 0.993248 5.44927 0.70575C5.81526 0.392046 6.25953 0.182948 6.78231 0.0784539C7.27888 -0.0261513 7.6317 -0.0261513 7.84079 0.0784539C8.07597 0.182948 8.19363 0.326696 8.19363 0.509699C8.19363 0.562002 8.18058 0.627352 8.15437 0.70575C8.15437 0.757942 8.15437 0.810247 8.15437 0.862549V1.0586C9.4351 0.953995 10.8595 0.99325 12.4277 1.17614C14.3095 1.41145 15.8384 1.85574 17.0144 2.50924C18.1906 3.16263 19.0792 3.92063 19.6804 4.78312C20.2815 5.61952 20.6474 6.49517 20.778 7.40996C20.9349 8.32476 20.9349 9.16115 20.778 9.91915C20.6212 10.8078 20.3338 11.618 19.9156 12.3499C19.4974 13.0556 19.0008 13.696 18.4259 14.271C17.8508 14.8199 17.2105 15.3034 16.5048 15.7216C15.7992 16.1398 15.0543 16.4927 14.2702 16.7802C15.1066 16.9632 15.8122 17.2637 16.3872 17.6819C16.9883 18.074 17.4719 18.5445 17.8377 19.0933C18.2037 19.6422 18.465 20.2564 18.6219 20.936C18.7787 21.6156 18.8309 22.3083 18.7787 23.014C18.7264 24.1117 18.4389 25.1441 17.9161 26.1112C17.4196 27.0522 16.74 27.8754 15.8776 28.5813C15.0151 29.2869 13.9827 29.8358 12.7805 30.2278C11.6044 30.6199 10.2975 30.7898 8.86002 30.7376H8.38966C7.99758 31.0773 7.56636 31.3256 7.09588 31.4824C6.65161 31.6654 6.22039 31.7961 5.80222 31.8745C5.33174 31.979 4.86127 32.0183 4.39079 31.9922C4.39079 31.8092 4.39079 31.6131 4.39079 31.404C4.417 31.221 4.43005 31.0381 4.43005 30.8551C4.43005 30.646 4.44309 30.4369 4.46918 30.2278C4.15561 30.1756 3.85509 30.0971 3.5676 29.9926C3.30622 29.9142 3.03178 29.8227 2.7443 29.7182C2.48291 29.6398 2.24773 29.5482 2.03864 29.4437C1.93404 29.2869 1.85565 29.0909 1.80335 28.8557C1.75105 28.6466 1.7119 28.4113 1.6857 28.1499C1.6857 27.9147 1.738 27.6403 1.8426 27.3267C2.65274 27.6403 3.58065 27.8754 4.62608 28.0324C4.67827 26.6994 4.71753 25.118 4.74362 23.2884C4.79592 21.4587 4.82213 19.5377 4.82213 17.5251C4.82213 15.2511 4.82213 13.0164 4.82213 10.8209C4.84822 8.6253 4.86127 6.74341 4.86127 5.17523C4.10331 5.56722 3.5153 6.10307 3.09712 6.78267C2.67895 7.46226 2.6397 8.32476 2.97948 9.37025ZM15.0543 23.21C15.1589 22.0599 14.9889 21.1451 14.5446 20.4655C14.1004 19.7598 13.5123 19.2372 12.7805 18.8974C12.0748 18.5313 11.2907 18.3092 10.4282 18.2308C9.59189 18.1524 8.83393 18.1394 8.15437 18.1917C8.20667 20.361 8.24592 22.3344 8.27202 24.1117C8.29811 25.863 8.32431 27.3005 8.35041 28.4243C9.16066 28.4506 9.94472 28.359 10.7027 28.1499C11.4606 27.9408 12.1401 27.6142 12.7412 27.1698C13.3685 26.7255 13.8913 26.1766 14.3095 25.5232C14.7276 24.8436 14.9759 24.0725 15.0543 23.21ZM8.07598 4.27348C8.02368 5.60647 7.99758 7.18782 7.99758 9.0174C7.99758 10.847 8.02368 12.8857 8.07598 15.1336C8.07598 15.3427 8.07598 15.5518 8.07598 15.7609C8.07598 15.9438 8.08902 16.1398 8.11523 16.3489C9.05606 16.2705 10.0362 16.0484 11.0555 15.6825C12.0748 15.2904 13.0026 14.7807 13.839 14.1534C14.7014 13.5261 15.4071 12.7942 15.956 11.9578C16.5048 11.0953 16.7793 10.1543 16.7793 9.13506C16.7793 8.35085 16.5702 7.65821 16.152 7.05712C15.7338 6.42982 15.1719 5.90702 14.4663 5.48882C13.7867 5.07062 12.9896 4.75703 12.0748 4.54793C11.1862 4.33883 10.2584 4.23423 9.29136 4.23423C9.08227 4.23423 8.87319 4.23423 8.6641 4.23423C8.4811 4.23423 8.28507 4.24738 8.07598 4.27348ZM32.5785 20.8184C32.5262 21.8378 32.3432 22.7787 32.0296 23.6413C31.7421 24.5038 31.337 25.2618 30.8142 25.9152C30.2916 26.5425 29.6643 27.039 28.9324 27.4051C28.2268 27.7709 27.4427 27.967 26.5803 27.9931C25.8223 28.0193 25.1035 27.8363 24.4241 27.4442C23.7706 27.0522 23.1956 26.5033 22.6991 25.7976C22.2025 25.0919 21.8235 24.2555 21.5622 23.2884C21.3269 22.2951 21.2615 21.2235 21.3661 20.0736C21.4445 18.7404 21.6929 17.6035 22.1111 16.6626C22.5292 15.6955 22.9735 14.8983 23.444 14.271C23.9143 13.6437 24.3457 13.1863 24.7376 12.8988C25.1558 12.5851 25.4172 12.4021 25.5217 12.3499C25.7047 12.2715 25.8746 12.2584 26.0314 12.3107C26.1882 12.3369 26.358 12.376 26.541 12.4283C26.5933 12.4544 26.6456 12.5198 26.6978 12.6244C26.8024 12.8073 26.8678 13.1471 26.8939 13.6437C27.0246 13.3562 27.1944 13.121 27.4036 12.938C27.6126 12.7551 27.8218 12.6244 28.0307 12.546C28.2921 12.4414 28.5535 12.376 28.8149 12.3499C28.9978 12.3237 29.3115 12.4675 29.7557 12.7812C30.2262 13.0948 30.6705 13.5915 31.0887 14.271C31.533 14.9506 31.912 15.8393 32.2257 16.9371C32.5392 18.0087 32.6569 19.3025 32.5785 20.8184ZM29.9126 20.3479C29.9387 19.7207 29.9126 19.0933 29.8341 18.4661C29.7819 17.8126 29.6774 17.2246 29.5206 16.7018C29.3899 16.1529 29.22 15.7216 29.0109 15.408C28.8019 15.0682 28.5928 14.8983 28.3837 14.8983C28.1484 14.9506 27.887 15.0682 27.5995 15.2511C27.3643 15.408 27.1029 15.6563 26.8155 15.9961C26.528 16.3359 26.2536 16.8194 25.9922 17.4467C25.9661 17.3683 25.9399 17.2246 25.9138 17.0155C25.8877 16.8325 25.8615 16.5973 25.8354 16.3098C25.8354 15.9961 25.8615 15.5779 25.9138 15.0552C25.5479 15.4995 25.2604 16.0222 25.0513 16.6234C24.8683 17.2246 24.7246 17.7996 24.6201 18.3485C24.5155 19.0018 24.4371 19.6554 24.3848 20.3087C24.3587 21.0144 24.3848 21.7071 24.4632 22.3867C24.5678 23.0663 24.7246 23.6674 24.9337 24.1902C25.1689 24.7129 25.4433 25.1311 25.757 25.4448C26.0706 25.7584 26.4496 25.9021 26.8939 25.876C27.3382 25.8498 27.7302 25.6669 28.07 25.3271C28.4098 24.9873 28.7103 24.5561 28.9717 24.0333C29.2331 23.5106 29.4422 22.9224 29.599 22.269C29.7557 21.6156 29.8603 20.9753 29.9126 20.3479ZM45.5158 20.8184C45.4634 21.8378 45.2805 22.7787 44.9672 23.6413C44.6795 24.5038 44.2747 25.2618 43.7517 25.9152C43.2287 26.5425 42.602 27.039 41.8693 27.4051C41.1646 27.7709 40.3795 27.967 39.5175 27.9931C38.7592 28.0193 38.0411 27.8363 37.3608 27.4442C36.7085 27.0522 36.1331 26.5033 35.6368 25.7976C35.1395 25.0919 34.7604 24.2555 34.4994 23.2884C34.2641 22.2951 34.1994 21.2235 34.3031 20.0736C34.3823 18.7404 34.6299 17.6035 35.0481 16.6626C35.4662 15.6955 35.9112 14.8983 36.3818 14.271C36.8512 13.6437 37.2828 13.1863 37.6753 12.8988C38.0935 12.5851 38.3544 12.4021 38.4593 12.3499C38.6421 12.2715 38.8116 12.2584 38.9689 12.3107C39.125 12.3369 39.2956 12.376 39.4785 12.4283C39.5309 12.4544 39.5833 12.5198 39.6346 12.6244C39.7394 12.8073 39.8052 13.1471 39.8309 13.6437C39.9613 13.3562 40.132 13.121 40.3405 12.938C40.5501 12.7551 40.7587 12.6244 40.9683 12.546C41.2292 12.4414 41.4913 12.376 41.7522 12.3499C41.9351 12.3237 42.2485 12.4675 42.6934 12.7812C43.164 13.0948 43.6078 13.5915 44.026 14.271C44.4698 14.9506 44.849 15.8393 45.1634 16.9371C45.4768 18.0087 45.5939 19.3025 45.5158 20.8184ZM42.8495 20.3479C42.8763 19.7207 42.8495 19.0933 42.7715 18.4661C42.7191 17.8126 42.6142 17.2246 42.4581 16.7018C42.3277 16.1529 42.157 15.7216 41.9485 15.408C41.7389 15.0682 41.5303 14.8983 41.3207 14.8983C41.0854 14.9506 40.8245 15.0682 40.5367 15.2511C40.3015 15.408 40.0405 15.6563 39.7528 15.9961C39.4651 16.3359 39.1908 16.8194 38.9298 17.4467C38.9031 17.3683 38.8774 17.2246 38.8507 17.0155C38.825 16.8325 38.7983 16.5973 38.7726 16.3098C38.7726 15.9961 38.7983 15.5779 38.8507 15.0552C38.4849 15.4995 38.1972 16.0222 37.9887 16.6234C37.8058 17.2246 37.6619 17.7996 37.5571 18.3485C37.4523 19.0018 37.3742 19.6554 37.3218 20.3087C37.2962 21.0144 37.3218 21.7071 37.401 22.3867C37.5047 23.0663 37.6619 23.6674 37.8705 24.1902C38.1058 24.7129 38.3812 25.1311 38.6945 25.4448C39.0079 25.7584 39.387 25.9021 39.8309 25.876C40.2758 25.8498 40.6672 25.6669 41.0073 25.3271C41.3474 24.9873 41.6474 24.5561 41.9095 24.0333C42.1704 23.5106 42.3789 22.9224 42.5362 22.269C42.6934 21.6156 42.7971 20.9753 42.8495 20.3479ZM55.552 18.1917C56.1007 18.4269 56.6237 18.8058 57.1199 19.3286C57.6172 19.8252 57.9306 20.5832 58.0611 21.6025C58.1659 22.4912 58.3098 23.2884 58.4926 23.9941C58.6755 24.6998 58.9365 25.3402 59.2766 25.9152C59.6156 26.4641 60.0605 26.9606 60.6092 27.4051C61.1846 27.8233 61.9161 28.1892 62.8049 28.5029C62.5696 28.7118 62.2819 28.8818 61.9417 29.0125C61.6284 29.1432 61.3284 29.2346 61.0407 29.2869C60.7006 29.3914 60.3482 29.4437 59.9825 29.4437C59.1193 29.5221 58.4135 29.4045 57.8648 29.0909C57.3162 28.8034 56.8846 28.3722 56.5713 27.797C56.2579 27.2221 56.0226 26.5556 55.8654 25.7976C55.7093 25.0396 55.5911 24.2555 55.513 23.4452C55.4862 23.1054 55.4472 22.7526 55.3948 22.3867C55.3424 22.0207 55.2509 21.6678 55.1205 21.3281C54.99 20.9883 54.8071 20.6746 54.5718 20.3871C54.3633 20.0996 54.0879 19.8775 53.7489 19.7207C53.1734 20.165 52.6382 20.5571 52.1408 20.8968C51.6702 21.2105 51.2521 21.4719 50.8863 21.681C50.9131 23.0924 50.9777 24.2555 51.0826 25.1703C51.213 26.0851 51.3837 26.6994 51.5922 27.013C51.4093 27.1437 51.2264 27.2613 51.0435 27.3658C50.8607 27.4442 50.7034 27.5096 50.573 27.5619C50.3901 27.6403 50.2206 27.6926 50.0633 27.7187C49.5403 27.8754 49.0698 27.8493 48.6516 27.6402C48.2602 27.4572 48.0505 26.9476 48.0249 26.1112L47.7896 3.21494C47.7896 3.00584 47.9858 2.79674 48.3773 2.58764C48.7954 2.35233 49.2538 2.16944 49.75 2.03874C50.2462 1.90804 50.6912 1.84269 51.0826 1.84269C51.5007 1.84269 51.697 1.96034 51.6702 2.19554C51.5922 3.99903 51.5141 5.69792 51.4361 7.29231C51.3569 8.8867 51.2922 10.2981 51.2398 11.5266C51.1606 12.9642 51.0959 14.271 51.0435 15.4472C50.9911 16.1529 50.9521 16.8325 50.9265 17.4858C50.9265 18.1394 50.9131 18.7667 50.8863 19.3677C51.3837 18.9757 51.9055 18.5445 52.4553 18.074C53.0039 17.6035 53.5269 17.0808 54.0232 16.5057C54.5194 15.9307 54.9376 15.3165 55.2777 14.6631C55.6178 13.9835 55.813 13.2647 55.8654 12.5067C56.1531 12.2976 56.4408 12.1278 56.7285 11.9971C57.0418 11.8402 57.3162 11.7226 57.5515 11.6442C57.8392 11.5396 58.1001 11.4873 58.3354 11.4873C58.9365 11.4612 59.29 11.5919 59.3937 11.8794C59.4728 12.0885 59.4595 12.4021 59.3546 12.8203C59.2766 13.2124 59.0803 13.696 58.767 14.271C58.4793 14.8199 58.0745 15.4341 57.5515 16.1137C57.0285 16.7671 56.3616 17.4598 55.552 18.1917ZM62.0599 13.6829C62.0599 13.5261 62.2685 13.3562 62.6867 13.1733C63.1048 12.9903 63.5631 12.8465 64.0594 12.7419C64.5824 12.6113 65.0518 12.546 65.47 12.546C65.915 12.5198 66.1369 12.6113 66.1369 12.8203C66.1369 13.2124 66.1112 13.7744 66.0588 14.5063C66.0064 15.212 65.9406 15.97 65.8626 16.7802C65.7845 17.5644 65.7053 18.3615 65.6273 19.1718C65.5492 19.9559 65.4968 20.6223 65.47 21.1712C65.4187 21.7463 65.3663 22.3736 65.3139 23.0531C65.2615 23.6282 65.2225 24.2686 65.1957 24.9743C65.17 25.68 65.17 26.3987 65.1957 27.1306C65.1957 27.2613 65.0652 27.392 64.8043 27.5226C64.5422 27.6533 64.2556 27.7449 63.9412 27.797C63.6278 27.8754 63.3279 27.9147 63.0402 27.9147C62.7524 27.9147 62.5952 27.8624 62.5696 27.7579C62.5171 27.6533 62.4647 27.4704 62.4123 27.209C62.3599 26.9476 62.3086 26.5817 62.2562 26.1112C62.2038 25.6146 62.1648 24.9873 62.138 24.2293C62.1124 23.4452 62.1246 22.5042 62.177 21.4065C62.2819 19.2372 62.2952 17.5644 62.2161 16.3882C62.138 15.1858 62.0856 14.2841 62.0599 13.6829ZM64.8043 5.88092C65.3273 5.88092 65.8235 6.03772 66.2941 6.35142C66.7647 6.66501 67 7.08321 67 7.60601C67 7.998 66.8952 8.37706 66.6855 8.74295C66.5026 9.10885 66.2674 9.4356 65.9808 9.7231C65.6931 10.0106 65.3663 10.2459 65.0006 10.4288C64.6337 10.5856 64.2947 10.6641 63.9813 10.6641C63.5631 10.6641 63.223 10.5988 62.961 10.468C62.7 10.3111 62.4915 10.1413 62.3343 9.95829C62.2038 9.7492 62.1124 9.52705 62.0599 9.29185C62.0075 9.05655 61.9819 8.8344 61.9819 8.6253C61.9819 8.36401 62.0209 8.0764 62.099 7.76281C62.177 7.42301 62.3209 7.12247 62.5305 6.86106C62.7391 6.57357 63.0268 6.33837 63.3925 6.15537C63.7583 5.97237 64.2289 5.88092 64.8043 5.88092ZM63.8241 9.52704C63.9813 9.52704 64.1508 9.47474 64.3337 9.37025C64.5422 9.23955 64.7251 9.0958 64.8824 8.93901C65.0652 8.78221 65.2091 8.61225 65.3139 8.42936C65.4444 8.24636 65.5102 8.08956 65.5102 7.95886C65.5102 7.74976 65.4053 7.64516 65.1957 7.64516C65.0652 7.64516 64.8957 7.69746 64.6861 7.80195C64.5032 7.90656 64.3203 8.03726 64.1374 8.19406C63.9546 8.32476 63.7973 8.48155 63.6669 8.66456C63.5631 8.82135 63.5107 8.97815 63.5107 9.13506C63.5107 9.39635 63.6144 9.52704 63.8241 9.52704Z" fill="#0065FC"/>
</svg>
