<svg xmlns="http://www.w3.org/2000/svg" xmlns:xlink="http://www.w3.org/1999/xlink" xmlns:svgjs="http://svgjs.com/svgjs" width="100" height="100"><svg width="100" height="100" viewBox="0 0 100 100" fill="none" xmlns="http://www.w3.org/2000/svg"><path d="M31.415 33.426a14.469 14.469 0 0 1-2.83-1.177 18.762 18.762 0 0 1-2.536-1.96 9.021 9.021 0 0 1-1.659-2.548c-.39-.915-.488-1.895-.292-2.94.39-2.157 1.626-4.182 3.707-6.077 2.081-1.896 4.878-3.399 8.39-4.51v-.293c.065-.72.52-1.438 1.366-2.157.91-.784 2.016-1.307 3.317-1.568 1.236-.261 2.114-.261 2.634 0 .585.261.878.62.878 1.078 0 .131-.032.294-.097.49v.882c3.187-.261 6.731-.163 10.634.294 4.683.589 8.488 1.7 11.414 3.333 2.927 1.634 5.139 3.529 6.635 5.685 1.495 2.09 2.406 4.28 2.731 6.567.39 2.287.39 4.378 0 6.273-.39 2.222-1.105 4.247-2.146 6.077a24.22 24.22 0 0 1-3.707 4.802 26.36 26.36 0 0 1-4.78 3.627 33.443 33.443 0 0 1-5.562 2.646c2.081.458 3.837 1.21 5.268 2.255 1.496.98 2.7 2.156 3.61 3.528.91 1.373 1.561 2.908 1.952 4.607.39 1.7.52 3.43.39 5.195a17.932 17.932 0 0 1-2.147 7.743c-1.235 2.352-2.927 4.41-5.073 6.175-2.146 1.764-4.715 3.137-7.707 4.117-2.927.98-6.179 1.404-9.756 1.274h-1.17a9.436 9.436 0 0 1-3.22 1.862 16.352 16.352 0 0 1-3.22.98c-1.17.262-2.342.36-3.512.294v-1.47c.065-.457.097-.915.097-1.372 0-.523.033-1.046.098-1.568-.78-.13-1.528-.327-2.244-.588a37.733 37.733 0 0 1-2.049-.686 10.962 10.962 0 0 1-1.756-.687c-.26-.392-.455-.882-.585-1.47a12.485 12.485 0 0 1-.293-1.764c0-.588.13-1.274.39-2.058 2.017.784 4.326 1.372 6.927 1.764.13-3.333.228-7.286.293-11.86.13-4.574.195-9.377.195-14.408v-16.76c.065-5.49.097-10.194.097-14.115-1.886.98-3.349 2.32-4.39 4.019-1.04 1.699-1.138 3.855-.292 6.469zm30.048 34.6c.26-2.876-.162-5.163-1.268-6.862-1.105-1.764-2.57-3.071-4.39-3.92-1.756-.916-3.708-1.471-5.854-1.667-2.081-.196-3.967-.229-5.658-.098.13 5.424.227 10.357.292 14.8.065 4.378.13 7.972.195 10.782a19.428 19.428 0 0 0 5.854-.686c1.886-.523 3.577-1.34 5.073-2.45a14.685 14.685 0 0 0 3.903-4.117c1.04-1.7 1.658-3.627 1.853-5.783zM44.097 20.683c-.13 3.332-.195 7.285-.195 11.86 0 4.574.065 9.67.195 15.29v1.568c0 .457.033.947.098 1.47 2.341-.196 4.78-.751 7.317-1.666a28.53 28.53 0 0 0 6.927-3.822c2.146-1.569 3.902-3.398 5.268-5.49a12.933 12.933 0 0 0 2.05-7.056c0-1.96-.521-3.693-1.562-5.195-1.04-1.569-2.439-2.876-4.195-3.921-1.691-1.045-3.675-1.83-5.951-2.352a30.02 30.02 0 0 0-6.927-.784h-1.56c-.456 0-.944.033-1.465.098z" fill="#0065FC"/></svg><style>@media (prefers-color-scheme:light){:root{filter:none}}</style></svg>